<svg width="26" height="26" viewBox="0 0 24 24" fill="none" xmlns="http://www.w3.org/2000/svg">
<path d="M19 2H5C4.46957 2 3.96086 2.21071 3.58579 2.58579C3.21071 2.96086 3 3.46957 3 4V18C3 19.1 3.9 20 5 20H9L11.29 22.29C11.68 22.68 12.31 22.68 12.7 22.29L15 20H19C20.1 20 21 19.1 21 18V4C21 2.9 20.1 2 19 2ZM13 18H11V16H13V18ZM15.07 10.25L14.17 11.17C13.59 11.76 13.18 12.27 13.05 13.23C12.99 13.66 12.64 13.99 12.2 13.99H11.89C11.7671 13.9898 11.6456 13.9632 11.5338 13.912C11.422 13.8609 11.3225 13.7864 11.2419 13.6935C11.1614 13.6006 11.1017 13.4916 11.0668 13.3736C11.032 13.2557 11.0228 13.1317 11.04 13.01C11.15 12.1 11.57 11.29 12.18 10.67L13.42 9.41C13.78 9.05 14 8.55 14 8C14 6.9 13.1 6 12 6C11.13 6 10.38 6.57 10.11 7.35C9.98 7.72 9.67 7.99 9.28 7.99H8.98C8.4 7.99 8 7.43 8.16 6.87C8.43251 5.94761 9.02811 5.15421 9.83776 4.63503C10.6474 4.11585 11.6169 3.90563 12.5689 4.04284C13.5209 4.18005 14.3916 4.65551 15.0217 5.3822C15.6518 6.10889 15.9991 7.03819 16 8C16 8.88 15.64 9.68 15.07 10.25Z" fill="#C5C5C5"/>
</svg>
