<svg width="26" height="26" viewBox="0 0 24 24" fill="none" xmlns="http://www.w3.org/2000/svg">
<path d="M1.81646 11.8359L11.4704 2.18907C11.5399 2.11942 11.6224 2.06417 11.7133 2.02647C11.8042 1.98877 11.9016 1.96936 12 1.96936C12.0984 1.96936 12.1959 1.98877 12.2868 2.02647C12.3777 2.06417 12.4602 2.11942 12.5297 2.18907L22.1836 11.8359C22.4649 12.1172 22.6243 12.4992 22.6243 12.8977C22.6243 13.725 21.9516 14.3977 21.1243 14.3977H20.1071V21.2813C20.1071 21.6961 19.7719 22.0313 19.3571 22.0313H13.5V16.7813H10.875V22.0313H4.64302C4.22817 22.0313 3.89302 21.6961 3.89302 21.2813V14.3977H2.87583C2.47739 14.3977 2.09536 14.2406 1.81411 13.957C1.23052 13.3711 1.23052 12.4219 1.81646 11.8359V11.8359Z" fill="#C5C5C5"/>
</svg>
