<svg width="35" height="35" viewBox="0 0 57 50" fill="none" xmlns="http://www.w3.org/2000/svg">
<g clip-path="url(#clip0_232_18)">
<path d="M12.5 18.75C10.7715 18.75 9.375 17.3535 9.375 15.625C9.375 13.8965 10.7715 12.5 12.5 12.5C14.2285 12.5 15.625 13.8965 15.625 15.625C15.625 17.3535 14.2285 18.75 12.5 18.75ZM19.5312 15.625C19.5312 14.3262 20.5762 13.2812 21.875 13.2812H43.75C45.0488 13.2812 46.0938 14.3262 46.0938 15.625C46.0938 16.9238 45.0488 17.9688 43.75 17.9688H21.875C20.5762 17.9688 19.5312 16.9238 19.5312 15.625ZM19.5312 25C19.5312 23.7012 20.5762 22.6562 21.875 22.6562H43.75C45.0488 22.6562 46.0938 23.7012 46.0938 25C46.0938 26.2988 45.0488 27.3438 43.75 27.3438H21.875C20.5762 27.3438 19.5312 26.2988 19.5312 25ZM19.5312 34.375C19.5312 33.0762 20.5762 32.0312 21.875 32.0312H43.75C45.0488 32.0312 46.0938 33.0762 46.0938 34.375C46.0938 35.6738 45.0488 36.7188 43.75 36.7188H21.875C20.5762 36.7188 19.5312 35.6738 19.5312 34.375ZM12.5 21.875C14.2285 21.875 15.625 23.2715 15.625 25C15.625 26.7285 14.2285 28.125 12.5 28.125C10.7715 28.125 9.375 26.7285 9.375 25C9.375 23.2715 10.7715 21.875 12.5 21.875ZM12.5 37.5C10.7715 37.5 9.375 36.1035 9.375 34.375C9.375 32.6465 10.7715 31.25 12.5 31.25C14.2285 31.25 15.625 32.6465 15.625 34.375C15.625 36.1035 14.2285 37.5 12.5 37.5ZM0 9.375C0 5.92285 2.79785 3.125 6.25 3.125H50C53.4473 3.125 56.25 5.92285 56.25 9.375V40.625C56.25 44.0723 53.4473 46.875 50 46.875H6.25C2.79785 46.875 0 44.0723 0 40.625V9.375ZM4.6875 9.375V40.625C4.6875 41.4844 5.38672 42.1875 6.25 42.1875H50C50.8594 42.1875 51.5625 41.4844 51.5625 40.625V9.375C51.5625 8.51172 50.8594 7.8125 50 7.8125H6.25C5.38672 7.8125 4.6875 8.51172 4.6875 9.375Z" fill="white"/>
</g>
<defs>
<clipPath id="clip0_232_18">
<rect width="56.25" height="50" fill="white"/>
</clipPath>
</defs>
</svg>
