<svg width="35" height="35" viewBox="0 0 50 50" fill="none" xmlns="http://www.w3.org/2000/svg">
<path d="M24.9999 33.3333C24.4096 33.3333 23.9152 33.1333 23.5166 32.7333C23.1166 32.3347 22.9166 31.8403 22.9166 31.25V16.3542L19.0103 20.2604C18.5937 20.6771 18.1076 20.8854 17.552 20.8854C16.9964 20.8854 16.493 20.6597 16.0416 20.2083C15.6249 19.7917 15.4256 19.2965 15.4437 18.7229C15.4603 18.1507 15.6596 17.6736 16.0416 17.2917L23.5416 9.79167C23.7499 9.58333 23.9756 9.43542 24.2187 9.34792C24.4617 9.26181 24.7221 9.21875 24.9999 9.21875C25.2777 9.21875 25.5381 9.26181 25.7812 9.34792C26.0242 9.43542 26.2499 9.58333 26.4583 9.79167L33.9583 17.2917C34.3749 17.7083 34.5742 18.2028 34.5562 18.775C34.5395 19.3486 34.3402 19.8264 33.9583 20.2083C33.5416 20.625 33.0471 20.8417 32.4749 20.8583C31.9013 20.8764 31.4062 20.6771 30.9895 20.2604L27.0833 16.3542V31.25C27.0833 31.8403 26.8839 32.3347 26.4853 32.7333C26.0853 33.1333 25.5902 33.3333 24.9999 33.3333ZM12.4999 41.6667C11.3541 41.6667 10.3735 41.259 9.55825 40.4438C8.74158 39.6271 8.33325 38.6458 8.33325 37.5V33.3333C8.33325 32.7431 8.53256 32.2479 8.93117 31.8479C9.33117 31.4493 9.82631 31.25 10.4166 31.25C11.0069 31.25 11.502 31.4493 11.902 31.8479C12.3006 32.2479 12.4999 32.7431 12.4999 33.3333V37.5H37.4999V33.3333C37.4999 32.7431 37.6999 32.2479 38.0999 31.8479C38.4985 31.4493 38.993 31.25 39.5833 31.25C40.1735 31.25 40.668 31.4493 41.0666 31.8479C41.4666 32.2479 41.6666 32.7431 41.6666 33.3333V37.5C41.6666 38.6458 41.2589 39.6271 40.4437 40.4438C39.627 41.259 38.6458 41.6667 37.4999 41.6667H12.4999Z" fill="white"/>
</svg>
