<svg width="35" height="35" viewBox="0 0 50 50" fill="none" xmlns="http://www.w3.org/2000/svg">
<path d="M25 12.5C25.5525 12.5 26.0824 12.7195 26.4731 13.1102C26.8638 13.5009 27.0833 14.0308 27.0833 14.5833V22.9167H35.4167C35.9692 22.9167 36.4991 23.1362 36.8898 23.5269C37.2805 23.9176 37.5 24.4475 37.5 25C37.5 25.5525 37.2805 26.0824 36.8898 26.4731C36.4991 26.8638 35.9692 27.0833 35.4167 27.0833H27.0833V35.4167C27.0833 35.9692 26.8638 36.4991 26.4731 36.8898C26.0824 37.2805 25.5525 37.5 25 37.5C24.4475 37.5 23.9176 37.2805 23.5269 36.8898C23.1362 36.4991 22.9167 35.9692 22.9167 35.4167V27.0833H14.5833C14.0308 27.0833 13.5009 26.8638 13.1102 26.4731C12.7195 26.0824 12.5 25.5525 12.5 25C12.5 24.4475 12.7195 23.9176 13.1102 23.5269C13.5009 23.1362 14.0308 22.9167 14.5833 22.9167H22.9167V14.5833C22.9167 14.0308 23.1362 13.5009 23.5269 13.1102C23.9176 12.7195 24.4475 12.5 25 12.5V12.5Z" fill="white"/>
<path fill-rule="evenodd" clip-rule="evenodd" d="M10.4167 45.8334C8.75914 45.8334 7.16943 45.1749 5.99733 44.0028C4.82523 42.8307 4.16675 41.241 4.16675 39.5834V10.4167C4.16675 8.75908 4.82523 7.16937 5.99733 5.99727C7.16943 4.82517 8.75914 4.16669 10.4167 4.16669H39.5834C41.241 4.16669 42.8307 4.82517 44.0028 5.99727C45.1749 7.16937 45.8334 8.75908 45.8334 10.4167V39.5834C45.8334 41.241 45.1749 42.8307 44.0028 44.0028C42.8307 45.1749 41.241 45.8334 39.5834 45.8334H10.4167ZM8.33341 39.5834C8.33341 40.1359 8.55291 40.6658 8.94361 41.0565C9.33431 41.4472 9.86421 41.6667 10.4167 41.6667H39.5834C40.1359 41.6667 40.6659 41.4472 41.0566 41.0565C41.4473 40.6658 41.6667 40.1359 41.6667 39.5834V10.4167C41.6667 9.86415 41.4473 9.33425 41.0566 8.94355C40.6659 8.55285 40.1359 8.33335 39.5834 8.33335H10.4167C9.86421 8.33335 9.33431 8.55285 8.94361 8.94355C8.55291 9.33425 8.33341 9.86415 8.33341 10.4167V39.5834Z" fill="white"/>
</svg>
