<svg width="35" height="35" viewBox="0 0 50 50" fill="none" xmlns="http://www.w3.org/2000/svg">
<path d="M39.082 42.9688H31.4258C32.4219 41.9922 33.5156 40.8789 34.6094 39.6289C40.0977 33.3203 42.9883 26.6406 42.9883 20.3125C42.9883 15.5469 41.0952 10.9765 37.7254 7.60667C34.3556 4.23688 29.7851 2.34375 25.0195 2.34375C20.2539 2.34375 15.6835 4.23688 12.3137 7.60667C8.94391 10.9765 7.05078 15.5469 7.05078 20.3125C7.05078 30.0781 13.7109 38.2617 18.6133 42.9688H10.957C10.3354 42.9688 9.73929 43.2157 9.29975 43.6552C8.86021 44.0948 8.61328 44.6909 8.61328 45.3125C8.61328 45.9341 8.86021 46.5302 9.29975 46.9698C9.73929 47.4093 10.3354 47.6562 10.957 47.6562H39.082C39.7036 47.6562 40.2998 47.4093 40.7393 46.9698C41.1789 46.5302 41.4258 45.9341 41.4258 45.3125C41.4258 44.6909 41.1789 44.0948 40.7393 43.6552C40.2998 43.2157 39.7036 42.9688 39.082 42.9688V42.9688ZM11.7383 20.3125C11.7383 16.7901 13.1376 13.412 15.6283 10.9212C18.119 8.43052 21.4971 7.03125 25.0195 7.03125C28.5419 7.03125 31.9201 8.43052 34.4108 10.9212C36.9015 13.412 38.3008 16.7901 38.3008 20.3125C38.3008 26.8164 34.4141 32.6953 31.1328 36.4648C29.2719 38.6064 27.2262 40.5801 25.0195 42.3633C22.8128 40.5801 20.7672 38.6064 18.9063 36.4648C15.6445 32.6953 11.7383 26.8164 11.7383 20.3125V20.3125ZM25.0195 28.9062C26.7192 28.9062 28.3807 28.4022 29.794 27.4579C31.2072 26.5136 32.3087 25.1715 32.9591 23.6012C33.6096 22.0309 33.7797 20.303 33.4482 18.6359C33.1166 16.9689 32.2981 15.4377 31.0962 14.2358C29.8944 13.0339 28.3631 12.2155 26.6961 11.8839C25.0291 11.5523 23.3011 11.7225 21.7308 12.3729C20.1605 13.0234 18.8184 14.1248 17.8741 15.5381C16.9298 16.9513 16.4258 18.6128 16.4258 20.3125C16.4258 22.5917 17.3312 24.7776 18.9428 26.3892C20.5545 28.0008 22.7403 28.9062 25.0195 28.9062ZM25.0195 16.4062C25.7921 16.4062 26.5473 16.6353 27.1897 17.0646C27.8321 17.4938 28.3328 18.1039 28.6284 18.8176C28.9241 19.5314 29.0014 20.3168 28.8507 21.0746C28.7 21.8323 28.328 22.5283 27.7817 23.0746C27.2354 23.6209 26.5393 23.993 25.7816 24.1437C25.0239 24.2944 24.2384 24.2171 23.5247 23.9214C22.8109 23.6257 22.2008 23.1251 21.7716 22.4827C21.3424 21.8403 21.1133 21.0851 21.1133 20.3125C21.1184 19.2781 21.5316 18.2875 22.2631 17.556C22.9945 16.8246 23.9851 16.4114 25.0195 16.4062V16.4062Z" fill="white"/>
</svg>
